<mxfile host="app.diagrams.net" modified="2023-11-12T17:08:29.364Z" agent="Mozilla/5.0 (Windows NT 10.0; Win64; x64) AppleWebKit/537.36 (KHTML, like Gecko) Chrome/119.0.0.0 Safari/537.36" version="22.1.0" etag="JXY8UwpuX6wydNhpxDij" type="github">
  <diagram name="第 1 页" id="AaRWfi8RVLjkypF44SDB">
    <mxGraphModel>
      <root>
        <mxCell id="0" />
        <mxCell id="1" parent="0" />
      </root>
    </mxGraphModel>
  </diagram>
</mxfile>
